<svg width="169" height="33" viewBox="0 0 169 33" fill="none" xmlns="http://www.w3.org/2000/svg"><path fill-rule="evenodd" clip-rule="evenodd" d="M160.972 16.725a2.098 2.098 0 01-.281.385l-.1.107a3.103 3.103 0 01-1.253.808 8.4 8.4 0 01-.854.25c-.43.109-.873.164-1.317.165a.957.957 0 01-.449-.104.325.325 0 01-.128-.269V8.348a.388.388 0 00-.39-.38h-6.793c-.289 0-.435-.21-.104-.926.076-.165.239-.67.328-.853.044-.091.093-.18.147-.265.229-.367.505-.703.821-1 .357-.191.764-.27 1.167-.228h16.39a.341.341 0 01.249.093.289.289 0 01.096.218c-.026.27-.074.538-.145.8a3.255 3.255 0 01-.795 1.493c-.18.202-.4.365-.645.477-.342.13-.706.194-1.072.187H161.7a.43.43 0 00-.435.396v7.461a1.819 1.819 0 01-.293.904zM133.3 10.967a2.51 2.51 0 01-.549-.726 2.403 2.403 0 01-.109-.915V8.03a2.713 2.713 0 011.751-2.74 6.544 6.544 0 011.876-.47 19.995 19.995 0 012.277-.125h9.665c.367 0 .382.225.382.307-.028.282-.089.56-.182.828l-.33.888a2.096 2.096 0 01-2.126 1.249h-7.347c-.072 0-.145.003-.217.01a.877.877 0 00-.808.862.869.869 0 00.757.86c.089.012.179.018.269.019h9.222c.416 0 .538.151.538.281a3.464 3.464 0 01-.358 1.012 6.223 6.223 0 01-.358.666c-.111.169-.236.328-.373.476-.225.25-.491.46-.786.622a2.637 2.637 0 01-1.119.217h-6.171c-1.71 0-2.071.396-2.071 1.091v1.555a2.005 2.005 0 01-.504 1.321c-.327.347-.7.647-1.11.892a4.35 4.35 0 01-1.138.498 4.775 4.775 0 01-1.319.1.44.44 0 01-.295-.091.326.326 0 01-.124-.265v-3.805-1.081a2.424 2.424 0 01.097-.728c.143-.235.333-.437.559-.593.089-.058.171-.128.242-.207a.427.427 0 000-.435 1.354 1.354 0 00-.244-.278l.003.001zM114.382 5.01a8.217 8.217 0 012.278-.31h8.108a8.223 8.223 0 012.278.31c.687.19 1.333.506 1.905.933.548.42.995.959 1.305 1.576.342.704.51 1.479.49 2.26v3.56c.02.78-.141 1.552-.469 2.26a4.448 4.448 0 01-1.287 1.586 5.61 5.61 0 01-1.905.944 8.415 8.415 0 01-2.321.31h-8.106a8.415 8.415 0 01-2.321-.31 5.607 5.607 0 01-1.905-.944 4.44 4.44 0 01-1.288-1.586 5.063 5.063 0 01-.468-2.26V9.777a4.882 4.882 0 01.49-2.26 4.557 4.557 0 011.308-1.576 5.726 5.726 0 011.906-.932l.002.001zm1.1 7.673c-.012.42.056.837.2 1.23.122.313.33.585.599.786.292.21.625.354.978.425.44.093.889.136 1.339.13h4.578a6.13 6.13 0 001.339-.13c.352-.071.686-.216.978-.425.269-.2.477-.473.598-.786.145-.393.213-.81.2-1.23v-2.086a2.402 2.402 0 00-.722-1.96 3.801 3.801 0 00-2.393-.592h-4.578a3.803 3.803 0 00-2.394.592 2.4 2.4 0 00-.722 1.96v2.086zm-12.573.64a2.349 2.349 0 00-.798-.125h-6.687a7.242 7.242 0 01-2.045-.396 3.76 3.76 0 01-1.333-.887 4.027 4.027 0 01-.818-1.49 5.31 5.31 0 01-.283-1.669 4.36 4.36 0 01.315-1.69c.2-.49.509-.93.902-1.285.412-.364.894-.64 1.416-.808a7.162 7.162 0 012.077-.28h12.118c.532 0 .535.325.535.435a3.5 3.5 0 01-.324 1.142c-.191.34-.431.65-.714.918-.25.238-.537.434-.849.579a2.75 2.75 0 01-1.05.197h-8.27c-.087 0-.174.004-.261.012a.708.708 0 00-.636.702v.303a.707.707 0 00.622.7c.092.011.185.017.278.017h7.198a5.786 5.786 0 011.762.259c.585.25 1.11.624 1.538 1.095.369.414.656.894.844 1.416.244.612.362 1.268.346 1.927a4.502 4.502 0 01-.315 1.77 3.382 3.382 0 01-.881 1.244c-.39.356-.852.626-1.354.791a5.965 5.965 0 01-1.731.238h-12.46c-.33 0-.552-.054-.552-.361.013-.311.059-.62.136-.921a2.545 2.545 0 011.482-1.84c.335-.14.694-.21 1.057-.208h7.736c.338.01.675-.02 1.006-.09a.601.601 0 00.459-.572v-.565a.633.633 0 00-.466-.555v-.004zM88.59 18.33a.454.454 0 01-.294.104 8.95 8.95 0 01-1.834-.194 4.449 4.449 0 01-1.146-.531 2.94 2.94 0 01-.841-.817 2.44 2.44 0 01-.315-1.225v-1.022c.033-.328 0-.66-.095-.975a1.464 1.464 0 00-.335-.498 1.69 1.69 0 00-.75-.342 7.212 7.212 0 00-1.23-.056h-5.838a.553.553 0 00-.56.464v2.431a2.09 2.09 0 01-.197.995 2.78 2.78 0 01-.767 1.01 3.435 3.435 0 01-1.124.564c-.446.139-.91.207-1.377.204-.3.013-.6-.021-.89-.101a.258.258 0 01-.124-.266L70.867 5.07a.328.328 0 01.124-.266c.292-.07.59-.104.89-.103.45-.002.9.06 1.334.183a3.89 3.89 0 011.136.52c.293.217.533.496.703.818.195.317.297.681.294 1.053v1.91a.61.61 0 00.622.52h5.505c.398.01.796-.022 1.188-.092.237-.038.459-.14.64-.297.146-.16.238-.363.263-.578a5.7 5.7 0 00.052-.848V7.27c.002-.348.104-.69.294-.981.205-.323.473-.602.788-.819.349-.241.73-.43 1.134-.563a9.963 9.963 0 012.058-.215.453.453 0 01.294.103c.09.088.143.207.149.333l.01 3.49c.001.39-.062.776-.186 1.144a1.864 1.864 0 01-.392.736c-.09.092-.22.214-.33.317a.39.39 0 00-.081.467l.026.053c.04.076.1.14.174.183.2.115.387.249.56.401.237.225.395.52.45.843.106.49.157.99.151 1.492v3.812a.324.324 0 01-.127.264zm-21.231-.598a4.056 4.056 0 01-1.643.617c-.617.062-1.458.089-2.135.089H52.915c-1.229 0-1.43-.823-1.43-1.527V5.921a1.43 1.43 0 01.15-.788 1.062 1.062 0 01.928-.435h10.6c.76-.004 1.52.036 2.274.118a4.147 4.147 0 011.623.533c.43.23.795.565 1.057.976a5.06 5.06 0 01.43 2.08v.435a3.683 3.683 0 01-.14.878c-.072.284-.182.556-.33.808-.172.257-.4.473-.666.632-.286.177-.263.124.07.295.314.157.592.378.816.65.214.268.373.576.467.906.126.35.2.715.222 1.085v.393a4.258 4.258 0 01-.49 2.036c-.28.486-.67.9-1.137 1.21zM63.933 8.68c0-.584-.297-.93-1.355-.93h-6.217a.337.337 0 00-.338.336v1.51a.337.337 0 00.338.335h6.218c.391.05.789-.026 1.134-.218a.967.967 0 00.22-.87V8.68zm.439 5.178c0-.788-.373-1.091-1.575-1.091h-6.433a.338.338 0 00-.338.336v1.74a.338.338 0 00.339.336l6.431-.013c1.2 0 1.574-.318 1.574-1.094v-.214h.002zm-20.62 4.58h-7.928a7.566 7.566 0 01-2.225-.325 5.657 5.657 0 01-1.89-.967 4.693 4.693 0 01-1.29-1.577 4.755 4.755 0 01-.56-2.176V9.876c.01-.762.21-1.51.58-2.176a4.765 4.765 0 011.32-1.568 5.989 5.989 0 011.89-.995 7.59 7.59 0 012.203-.406l12.31-.03a.296.296 0 01.297.326c-.091.495-.23.98-.414 1.45-.108.305-.27.589-.477.838a2.324 2.324 0 01-1.878.658h-8.021c-1.192 0-2.045.153-2.56.573a1.76 1.76 0 00-.713 1.704v2.707a2.032 2.032 0 00.676 1.538c.038.033.077.063.12.097a3.846 3.846 0 002.29.574h5.153c.46.043.92-.088 1.29-.367a1.465 1.465 0 00.417-1.107v-.293a.38.38 0 00-.449-.414H39.48a2.516 2.516 0 01-.964-.186 2.599 2.599 0 01-1.295-1.661 7.915 7.915 0 01-.186-1.066.317.317 0 01.328-.358h9.753c.459.001.904.16 1.261.448.36.421.55.961.532 1.515v3.272a3.143 3.143 0 01-.449 1.745c-.278.378-1.193 1.744-4.706 1.744zm-27.718.836H6.603s-2.575.086-3.862-.703c-1.142-.7-2.806-1.64-2.73-5.384-.004-2.31 0-3.256 0-3.692 0-.437 0-2.107 3.233-2.107h11.43c.188-.004.373.042.538.134.359.215.746.76.015 2.129-1.123 2.106-2.4 1.958-3.358 1.958H6.478a.726.726 0 00-.808.791c0 1.12.103 1.87.709 2.259a3.65 3.65 0 001.716.378h8.083c.855 0 2.53-.139 3.087-1.359.102-.235.151-.49.146-.746v-5.54c0-.819.134-3.165-3.772-3.165H4.149A2.759 2.759 0 011.58 2.792C1.04 1.602.243 0 1.455 0l15.926.017s3.57.062 5.749 2.33a6.155 6.155 0 011.94 4.248v6.333c0 4.88-2.02 6.346-9.036 6.346z" fill="#23252C"/><path d="M2.039 32.959c-.401 0-.789-.064-1.164-.192-.37-.133-.662-.303-.875-.51l.281-.622c.203.19.462.348.776.47.32.117.647.176.982.176.44 0 .77-.077.988-.232a.745.745 0 00.328-.63.613.613 0 00-.183-.463 1.123 1.123 0 00-.441-.279 7.47 7.47 0 00-.738-.215 7.569 7.569 0 01-.974-.303 1.66 1.66 0 01-.631-.463c-.172-.213-.259-.498-.259-.854 0-.298.074-.566.22-.806.153-.239.381-.43.686-.574.304-.144.682-.215 1.133-.215.314 0 .624.042.928.127.304.085.565.208.783.367l-.25.639a2.598 2.598 0 00-.716-.336 2.475 2.475 0 00-.745-.12c-.431 0-.756.083-.974.248a.772.772 0 00-.32.638c0 .192.062.349.183.471.122.117.272.21.45.28.182.063.428.132.737.207.4.1.723.202.966.303.243.1.451.255.624.462.177.208.266.487.266.838 0 .293-.076.561-.228.806-.152.24-.383.43-.692.574-.31.139-.69.208-1.141.208zM7.615 32.959a2.89 2.89 0 01-1.453-.367 2.731 2.731 0 01-1.02-1.03 2.944 2.944 0 01-.364-1.46c0-.537.121-1.023.365-1.46a2.674 2.674 0 011.02-1.02c.43-.25.914-.375 1.452-.375.532 0 1.014.125 1.445.375a2.62 2.62 0 011.012 1.02c.243.431.365.918.365 1.46a2.96 2.96 0 01-.365 1.469c-.243.43-.58.77-1.012 1.02a2.876 2.876 0 01-1.445.368zm0-.71a1.996 1.996 0 001.788-1.045c.182-.33.273-.697.273-1.101a2.19 2.19 0 00-.273-1.093 1.996 1.996 0 00-1.788-1.053c-.39 0-.745.093-1.065.279a2.014 2.014 0 00-.745.774 2.24 2.24 0 00-.267 1.093c0 .404.09.77.267 1.1.182.325.43.58.745.767.32.186.675.279 1.065.279zM12.36 28.005v1.946h2.67v.686h-2.67v2.258h-.76V27.31h3.758v.695H12.36zM17.523 28.005h-1.826v-.695h4.404v.695h-1.825v4.89h-.753v-4.89zM28.393 27.31l-1.78 5.585h-.798l-1.453-4.46-1.453 4.46h-.814l-1.78-5.585h.784l1.437 4.54 1.499-4.54h.7l1.468 4.564 1.468-4.564h.722zM32.546 31.499h-2.83l-.586 1.396h-.783l2.411-5.585h.753l2.42 5.585h-.8l-.585-1.396zm-.267-.638l-1.148-2.737-1.149 2.737h2.297zM38.284 32.895l-1.148-1.715c-.142.01-.254.016-.335.016h-1.316v1.699h-.76V27.31H36.8c.69 0 1.232.173 1.628.519.395.346.593.822.593 1.428 0 .43-.101.798-.304 1.101a1.727 1.727 0 01-.867.662l1.263 1.875h-.83zm-1.506-2.377c.482 0 .85-.11 1.103-.328.254-.218.38-.529.38-.933s-.126-.713-.38-.925c-.253-.219-.621-.328-1.103-.328h-1.293v2.514h1.293zM44.115 32.2v.695h-3.864V27.31h3.758v.695h-2.997v1.715h2.67v.678h-2.67V32.2h3.103zM47.39 27.31h2.244c.563 0 1.062.117 1.498.351.437.234.774.564 1.012.99.244.42.365.904.365 1.452 0 .547-.121 1.034-.365 1.46-.238.42-.575.747-1.012.981-.436.234-.935.351-1.498.351H47.39V27.31zm2.198 4.89c.431 0 .809-.087 1.134-.262.33-.176.583-.42.76-.734.178-.32.267-.686.267-1.101 0-.415-.09-.78-.267-1.093a1.84 1.84 0 00-.76-.742 2.346 2.346 0 00-1.134-.264H48.15v4.197h1.438zM57.538 32.2v.695h-3.864V27.31h3.758v.695h-2.997v1.715h2.67v.678h-2.67V32.2h3.103zM63.32 27.31l-2.334 5.585h-.753L57.89 27.31h.821l1.917 4.588 1.932-4.588h.76zM67.864 32.2v.695H64V27.31h3.757v.695H64.76v1.715h2.67v.678h-2.67V32.2h3.104zM69.096 27.31h.76v4.89h2.883v.695h-3.643V27.31zM75.92 32.959a2.89 2.89 0 01-1.454-.367 2.73 2.73 0 01-1.019-1.03 2.945 2.945 0 01-.365-1.46c0-.537.122-1.023.365-1.46a2.673 2.673 0 011.02-1.02c.43-.25.915-.375 1.452-.375.533 0 1.015.125 1.446.375a2.62 2.62 0 011.011 1.02c.244.431.365.918.365 1.46a2.96 2.96 0 01-.365 1.469 2.69 2.69 0 01-1.011 1.02 2.875 2.875 0 01-1.446.368zm0-.71a1.996 1.996 0 001.787-1.045c.183-.33.274-.697.274-1.101a2.19 2.19 0 00-.274-1.093 1.996 1.996 0 00-1.788-1.053c-.39 0-.745.093-1.065.279a2.014 2.014 0 00-.745.774 2.24 2.24 0 00-.266 1.093c0 .404.088.77.266 1.1.183.325.431.58.745.767.32.186.675.279 1.065.279zM81.98 27.31c.69 0 1.233.173 1.629.519.395.346.593.822.593 1.428s-.198 1.082-.593 1.428c-.396.346-.939.519-1.628.519h-1.316v1.691h-.76V27.31h2.076zm-.022 3.2c.482 0 .85-.107 1.103-.32.253-.218.38-.529.38-.933s-.127-.713-.38-.925c-.254-.219-.621-.328-1.103-.328h-1.293v2.506h1.293zM90.256 32.895l-.007-4.069-1.925 3.39h-.35L86.05 28.85v4.045h-.73V27.31h.623l2.221 3.926 2.191-3.926h.624l.007 5.585h-.73zM96.449 32.2v.695h-3.865V27.31h3.758v.695h-2.997v1.715h2.67v.678h-2.67V32.2h3.104zM102.259 27.31v5.585h-.623l-3.195-4.165v4.165h-.76V27.31h.623l3.195 4.165V27.31h.76zM104.911 28.005h-1.826v-.695h4.404v.695h-1.825v4.89h-.753v-4.89zM114.255 32.983l-.707-.742c-.472.478-1.065.718-1.78.718-.355 0-.675-.061-.959-.184a1.598 1.598 0 01-.669-.51 1.287 1.287 0 01-.236-.758c0-.34.099-.641.297-.902.203-.266.535-.537.996-.813-.233-.245-.398-.466-.494-.663a1.386 1.386 0 01-.145-.614c0-.378.13-.68.388-.91.264-.228.614-.343 1.05-.343.406 0 .728.104.966.312.238.207.358.492.358.853 0 .282-.089.535-.267.758-.172.224-.461.458-.867.702l1.316 1.372c.152-.303.261-.64.327-1.013l.586.2c-.091.49-.246.915-.464 1.276l.715.75-.411.51zm-2.259-5.162c-.238 0-.426.064-.563.191a.632.632 0 00-.198.487.87.87 0 00.107.415c.076.133.22.314.433.542.35-.207.591-.385.723-.534a.705.705 0 00.205-.487.565.565 0 00-.19-.447c-.121-.111-.294-.167-.517-.167zm-.183 4.5c.528 0 .961-.176 1.301-.527l-1.514-1.58c-.365.213-.621.413-.768.599a.969.969 0 00-.213.614c0 .266.109.481.327.646.223.165.512.248.867.248zM119.999 32.959a2.876 2.876 0 01-1.445-.367 2.704 2.704 0 01-1.004-1.021 2.954 2.954 0 01-.365-1.468c0-.543.121-1.03.365-1.46.243-.436.58-.777 1.011-1.021a2.83 2.83 0 011.446-.375c.415 0 .796.074 1.141.223.344.144.639.359.882.646l-.494.503a1.942 1.942 0 00-1.499-.662c-.395 0-.753.093-1.072.279-.32.186-.571.444-.754.774a2.245 2.245 0 00-.266 1.093c0 .404.089.77.266 1.1.183.325.434.58.754.767.319.186.677.279 1.072.279.593 0 1.093-.224 1.499-.67l.494.502a2.36 2.36 0 01-.89.654 2.847 2.847 0 01-1.141.224zM125.407 32.959a2.889 2.889 0 01-1.452-.367 2.737 2.737 0 01-1.02-1.03 2.949 2.949 0 01-.365-1.46c0-.537.122-1.023.365-1.46a2.68 2.68 0 011.02-1.02c.431-.25.915-.375 1.452-.375a2.83 2.83 0 011.446.375c.431.244.768.585 1.011 1.02.244.431.366.918.366 1.46 0 .543-.122 1.032-.366 1.469-.243.43-.58.77-1.011 1.02a2.877 2.877 0 01-1.446.368zm0-.71a1.994 1.994 0 001.788-1.045 2.23 2.23 0 00.274-1.101c0-.405-.091-.769-.274-1.093a1.994 1.994 0 00-1.788-1.053c-.39 0-.745.093-1.064.279a2.014 2.014 0 00-.746.774 2.245 2.245 0 00-.266 1.093c0 .404.089.77.266 1.1.183.325.431.58.746.767.319.186.674.279 1.064.279zM133.971 27.31v5.585h-.623l-3.195-4.165v4.165h-.761V27.31h.624l3.195 4.165V27.31h.76zM137.117 32.959c-.401 0-.789-.064-1.164-.192-.37-.133-.662-.303-.875-.51l.282-.622c.203.19.461.348.776.47.319.117.646.176.981.176.441 0 .771-.077.989-.232a.745.745 0 00.327-.63.612.612 0 00-.183-.463 1.114 1.114 0 00-.441-.279 7.397 7.397 0 00-.738-.215 7.562 7.562 0 01-.973-.303 1.661 1.661 0 01-.632-.463c-.172-.213-.258-.498-.258-.854 0-.298.073-.566.22-.806.152-.239.381-.43.685-.574.304-.144.682-.215 1.133-.215.315 0 .624.042.928.127.305.085.566.208.784.367l-.251.639a2.604 2.604 0 00-.715-.336 2.478 2.478 0 00-.746-.12c-.431 0-.755.083-.973.248a.772.772 0 00-.32.638c0 .192.061.349.183.471.121.117.271.21.449.28.182.063.428.132.737.207.401.1.723.202.966.303.244.1.452.255.624.462.178.208.266.487.266.838 0 .293-.076.561-.228.806-.152.24-.383.43-.692.574-.309.139-.69.208-1.141.208zM142.496 32.959c-.71 0-1.263-.213-1.659-.638-.395-.426-.593-1.038-.593-1.835V27.31h.761v3.144c0 1.196.499 1.795 1.498 1.795.487 0 .86-.147 1.118-.439.259-.298.388-.75.388-1.356V27.31h.738v3.176c0 .803-.198 1.417-.593 1.843-.396.42-.948.63-1.658.63zM146.307 27.31h.76v4.89h2.883v.695h-3.643V27.31zM151.383 28.005h-1.826v-.695h4.404v.695h-1.825v4.89h-.753v-4.89zM154.79 27.31h.761v5.585h-.761V27.31zM161.724 27.31v5.585h-.624l-3.195-4.165v4.165h-.76V27.31h.623l3.195 4.165V27.31h.761zM167.007 30.07h.73v2.179c-.263.228-.57.404-.92.526-.35.123-.715.184-1.096.184a2.889 2.889 0 01-1.452-.367 2.754 2.754 0 01-1.02-1.021 2.964 2.964 0 01-.365-1.468c0-.543.122-1.032.365-1.468a2.678 2.678 0 011.02-1.021 2.946 2.946 0 011.468-.367c.426 0 .811.074 1.156.223.35.144.646.356.89.638l-.472.495a2.09 2.09 0 00-1.544-.646c-.406 0-.771.093-1.095.279-.32.18-.571.436-.753.766a2.202 2.202 0 00-.274 1.1c0 .405.091.772.274 1.102.182.324.433.58.753.765.324.187.687.28 1.088.28.476 0 .892-.12 1.247-.36v-1.818z" fill="#7C808A"/></svg>