<svg width="158" height="18" viewBox="0 0 158 18" fill="none" xmlns="http://www.w3.org/2000/svg"><path fill-rule="evenodd" clip-rule="evenodd" d="M150.299 15.617c-.073.13-.161.25-.262.36l-.094.1a2.89 2.89 0 01-1.169.755 7.886 7.886 0 01-.798.232 4.987 4.987 0 01-1.23.154.896.896 0 01-.419-.096.314.314 0 01-.12-.251V7.795a.358.358 0 00-.364-.354h-6.342c-.271 0-.407-.197-.098-.865.072-.154.224-.625.307-.797.041-.085.087-.167.137-.247.214-.343.472-.657.766-.934a1.887 1.887 0 011.09-.212h15.305a.318.318 0 01.299.178.284.284 0 01.023.112 4.51 4.51 0 01-.135.747 3.046 3.046 0 01-.743 1.393 1.82 1.82 0 01-.603.446 2.66 2.66 0 01-1 .175h-3.869a.404.404 0 00-.407.37v6.967c-.015.3-.109.591-.274.843zm-25.839-5.376a2.36 2.36 0 01-.512-.678 2.247 2.247 0 01-.102-.854v-1.21a2.534 2.534 0 011.635-2.559 6.121 6.121 0 011.751-.44c.706-.079 1.416-.117 2.127-.116h9.025c.342 0 .357.21.357.287a3.468 3.468 0 01-.17.773l-.309.83a1.954 1.954 0 01-1.985 1.165h-6.86c-.068 0-.135.004-.203.01a.82.82 0 00-.754.805.805.805 0 00.707.803c.083.011.167.017.251.017h8.611c.388 0 .502.142.502.263-.061.33-.174.65-.334.945a5.839 5.839 0 01-.335.622 3.24 3.24 0 01-.348.444c-.21.234-.458.43-.733.58-.33.144-.686.213-1.045.204h-5.762c-1.597 0-1.934.37-1.934 1.019v1.451c-.003.455-.17.893-.471 1.234a4.834 4.834 0 01-1.036.833 4.097 4.097 0 01-1.063.465 4.46 4.46 0 01-1.232.093.409.409 0 01-.275-.085.298.298 0 01-.116-.247v-3.553-1.01c-.005-.23.026-.459.09-.68.134-.218.312-.407.523-.553.083-.055.159-.12.225-.193a.394.394 0 000-.406 1.267 1.267 0 00-.227-.26l.002.001zM106.795 4.68a7.674 7.674 0 012.128-.29h7.57a7.677 7.677 0 012.127.29 5.338 5.338 0 011.779.87c.513.393.929.896 1.219 1.472.319.657.476 1.38.458 2.11v3.325a4.741 4.741 0 01-.438 2.11 4.151 4.151 0 01-1.202 1.481 5.24 5.24 0 01-1.779.881 7.857 7.857 0 01-2.167.29h-7.57a7.85 7.85 0 01-2.166-.29 5.228 5.228 0 01-1.779-.88 4.143 4.143 0 01-1.203-1.482 4.727 4.727 0 01-.437-2.11V9.129a4.558 4.558 0 01.457-2.11 4.26 4.26 0 011.222-1.472 5.346 5.346 0 011.779-.87l.002.002zm1.028 7.165c-.012.39.051.78.186 1.148.114.292.308.546.559.734.273.195.585.33.914.397.411.086.83.127 1.25.121h4.275a5.73 5.73 0 001.25-.121c.329-.067.641-.202.914-.397.251-.188.445-.442.558-.734.135-.367.198-.757.186-1.148V9.895a2.234 2.234 0 00-.674-1.83 3.547 3.547 0 00-2.234-.552h-4.275a3.549 3.549 0 00-2.235.552 2.244 2.244 0 00-.674 1.83v1.949zm-11.74.596a2.188 2.188 0 00-.746-.116h-6.243a6.763 6.763 0 01-1.91-.37 3.51 3.51 0 01-1.245-.828 3.76 3.76 0 01-.764-1.39 4.96 4.96 0 01-.264-1.56 4.072 4.072 0 01.294-1.577c.187-.459.475-.87.842-1.2a3.73 3.73 0 011.323-.756 6.688 6.688 0 011.939-.26h11.316c.496 0 .498.303.498.406-.039.37-.141.73-.302 1.066a3.63 3.63 0 01-.667.858c-.233.222-.5.404-.793.54a2.562 2.562 0 01-.98.184H90.66c-.082 0-.164.003-.245.011a.661.661 0 00-.594.656v.282a.66.66 0 00.581.655c.086.01.173.015.26.015h6.72a5.407 5.407 0 011.647.242 4.154 4.154 0 011.435 1.022c.345.386.613.835.789 1.322.228.572.337 1.184.323 1.8a4.227 4.227 0 01-.295 1.653 3.15 3.15 0 01-.822 1.16 3.492 3.492 0 01-1.264.74 5.574 5.574 0 01-1.617.222H85.943c-.308 0-.515-.05-.515-.337.012-.29.055-.579.127-.86a2.38 2.38 0 011.384-1.719c.313-.13.648-.196.987-.193h7.224c.315.009.63-.02.939-.084a.557.557 0 00.428-.534v-.528a.59.59 0 00-.435-.519v-.003zM82.715 17.117a.423.423 0 01-.275.096 8.36 8.36 0 01-1.713-.181 4.153 4.153 0 01-1.07-.496 2.743 2.743 0 01-.786-.763 2.279 2.279 0 01-.294-1.143v-.955c.031-.306 0-.616-.088-.91a1.365 1.365 0 00-.313-.465 1.578 1.578 0 00-.7-.32 6.74 6.74 0 00-1.149-.052h-5.451a.517.517 0 00-.523.433v2.27c.016.32-.047.64-.184.93a2.595 2.595 0 01-.716.943c-.315.239-.67.417-1.05.526-.416.13-.85.194-1.286.19-.28.013-.56-.02-.83-.094a.24.24 0 01-.116-.248l-.006-12.144a.306.306 0 01.116-.249 3.5 3.5 0 01.83-.095c.422-.002.841.056 1.247.17.377.105.735.269 1.06.487.274.201.498.462.656.763.183.295.278.636.276.983v1.783a.57.57 0 00.58.487h5.14c.372.008.744-.021 1.11-.087a1.21 1.21 0 00.598-.277.97.97 0 00.245-.54c.036-.262.052-.527.049-.792V6.79c.001-.326.096-.644.274-.917a2.66 2.66 0 01.735-.764 4.11 4.11 0 011.06-.526 9.304 9.304 0 011.921-.2c.1-.003.198.031.275.095a.464.464 0 01.139.312l.01 3.258c0 .364-.058.724-.174 1.069a1.742 1.742 0 01-.366.687c-.084.085-.205.2-.308.296a.365.365 0 00-.077.436l.025.049a.42.42 0 00.163.171c.186.107.36.232.522.374.222.21.37.487.42.788.1.458.147.925.142 1.393v3.559a.302.302 0 01-.118.247zm-19.826-.56a3.786 3.786 0 01-1.534.577c-.576.058-1.361.083-1.994.083h-9.96c-1.146 0-1.334-.768-1.334-1.426V5.528a1.335 1.335 0 01.14-.735.993.993 0 01.867-.406h9.897c.71-.004 1.419.033 2.124.11.534.06 1.05.229 1.515.498.402.214.742.527.987.911.27.612.407 1.274.402 1.942v.406a3.43 3.43 0 01-.132.82c-.066.265-.17.52-.307.755a1.96 1.96 0 01-.622.59c-.267.165-.245.116.065.275.294.147.553.354.762.607.2.25.349.538.436.847.118.326.187.667.208 1.013v.366a3.975 3.975 0 01-.458 1.902 3.37 3.37 0 01-1.062 1.129zM59.69 8.106c0-.545-.277-.868-1.264-.868H52.62a.315.315 0 00-.316.313v1.41a.314.314 0 00.316.313h5.806c.365.047.736-.024 1.06-.203a.904.904 0 00.204-.813v-.152zm.41 4.835c0-.735-.349-1.019-1.47-1.019h-6.007a.313.313 0 00-.316.314v1.625a.313.313 0 00.316.314l6.006-.012c1.12 0 1.47-.297 1.47-1.022v-.2zm-19.253 4.277h-7.404a7.066 7.066 0 01-2.078-.303 5.283 5.283 0 01-1.764-.903 4.385 4.385 0 01-1.205-1.473 4.44 4.44 0 01-.523-2.032V9.222c.01-.712.196-1.41.542-2.032.3-.572.72-1.071 1.233-1.464a5.593 5.593 0 011.763-.929 7.087 7.087 0 012.058-.379l11.495-.028a.276.276 0 01.277.304 7.3 7.3 0 01-.386 1.353c-.101.286-.252.55-.445.783a2.171 2.171 0 01-1.755.615h-7.49c-1.112 0-1.909.142-2.389.535a1.643 1.643 0 00-.666 1.591V12.1a1.895 1.895 0 00.63 1.436c.036.031.073.058.112.09a3.592 3.592 0 002.139.537h4.812c.43.04.86-.083 1.205-.343a1.37 1.37 0 00.389-1.034v-.274a.355.355 0 00-.42-.386h-4.121a2.352 2.352 0 01-.9-.174 2.428 2.428 0 01-1.21-1.55 7.388 7.388 0 01-.174-.996.296.296 0 01.307-.334h9.107a1.88 1.88 0 011.178.418c.335.393.512.898.496 1.414v3.056a2.934 2.934 0 01-.418 1.63c-.26.353-1.115 1.628-4.395 1.628zm-25.884.78H6.157s-2.404.08-3.606-.656c-1.066-.654-2.62-1.532-2.549-5.027-.004-2.158 0-3.04 0-3.448 0-.408 0-1.967 3.02-1.967h10.671c.176-.004.35.04.503.125.335.2.697.71.014 1.987-1.049 1.967-2.24 1.829-3.135 1.829H6.04a.678.678 0 00-.755.739c0 1.045.096 1.745.662 2.109a3.408 3.408 0 001.603.353h7.547c.798 0 2.362-.13 2.883-1.269.095-.22.141-.457.136-.696V6.902c0-.764.125-2.955-3.522-2.955H3.867a2.576 2.576 0 01-2.4-1.34C.964 1.497.218 0 1.35 0l14.871.016s3.335.058 5.368 2.176a5.747 5.747 0 011.813 3.967v5.913c0 4.556-1.887 5.925-8.439 5.925z" fill="#23252C"/></svg>